<svg width="24" height="24" viewBox="0 0 24 24" fill="none" xmlns="http://www.w3.org/2000/svg">
<path d="M3.08368 2.7512C3.22106 2.36044 3.64921 2.15503 4.03998 2.29242L4.34138 2.39838C4.95791 2.61511 5.48154 2.79919 5.89363 3.00139C6.33426 3.21759 6.71211 3.48393 6.99629 3.89979C7.27827 4.31243 7.39468 4.76515 7.44841 5.26153C7.47247 5.48373 7.48515 5.72967 7.49184 6H18.1301C19.815 6 21.3318 6 21.7757 6.57708C22.2197 7.15417 22.0461 8.02369 21.699 9.76275L21.1992 12.1875C20.8841 13.7164 20.7266 14.4808 20.1748 14.9304C19.6231 15.38 18.8426 15.38 17.2816 15.38H11.9787C9.18979 15.38 7.79534 15.38 6.92894 14.4662C6.06254 13.5523 5.9993 12.5816 5.9993 9.64V7.03832C5.9993 6.29837 5.99828 5.80316 5.95712 5.42295C5.91779 5.0596 5.84809 4.87818 5.75783 4.74609C5.66977 4.61723 5.5361 4.4968 5.23288 4.34802C4.91003 4.18961 4.47128 4.03406 3.80367 3.79934L3.54246 3.7075C3.1517 3.57012 2.94629 3.14197 3.08368 2.7512Z" fill="#DBF8F9"/>
<path d="M8.5 18C9.32843 18 10 18.6716 10 19.5C10 20.3284 9.32843 21 8.5 21C7.67157 21 7 20.3284 7 19.5C7 18.6716 7.67157 18 8.5 18Z" fill="#DBF8F9"/>
<path d="M17.5 18C18.3284 18 19 18.6715 19 19.5C19 20.3284 18.3284 21 17.5 21C16.6716 21 16 20.3284 16 19.5C16 18.6715 16.6716 18 17.5 18Z" fill="#DBF8F9"/>
<path d="M16.5421 9.51724C16.8278 9.2173 16.8162 8.74256 16.5163 8.4569C16.2163 8.17123 15.7416 8.18281 15.4559 8.48276L13.1419 10.9125L12.5421 10.2828C12.2565 9.98281 11.7817 9.97123 11.4818 10.2569C11.1818 10.5426 11.1703 11.0173 11.4559 11.3172L12.5988 12.5172C12.7403 12.6659 12.9366 12.75 13.1419 12.75C13.3471 12.75 13.5434 12.6659 13.685 12.5172L16.5421 9.51724Z" fill="#D75D72"/>
</svg>
